HIERARCHY
ROOT joint_Root
{
	OFFSET 0.0 0.0 0.0
	CHANNELS 6 Xposition Yposition Zposition Zrotation Xrotation Yrotation 
	JOINT Hips
	{
		OFFSET -17.1583 93.1646 452.98
		CHANNELS 6 Xposition Yposition Zposition Zrotation Xrotation Yrotation 
		JOINT Spine
		{
			OFFSET 15.7357 0.0 0.0
			CHANNELS 6 Xposition Yposition Zposition Zrotation Xrotation Yrotation 
			JOINT Chest
			{
				OFFSET 8.98455 -0.406207 0.0
				CHANNELS 6 Xposition Yposition Zposition Zrotation Xrotation Yrotation 
				JOINT Neck
				{
					OFFSET 16.3773 0.0 0.0
					CHANNELS 6 Xposition Yposition Zposition Zrotation Xrotation Yrotation 
					JOINT Head
					{
						OFFSET 6.45672 0.0 0.0
						CHANNELS 6 Xposition Yposition Zposition Zrotation Xrotation Yrotation 
						End Site
						{
							OFFSET 0.0 0.0 0.0
						}
					}
				}
				JOINT Shoulder_L
				{
					OFFSET 12.9942 -0.242716 4.98039
					CHANNELS 6 Xposition Yposition Zposition Zrotation Xrotation Yrotation 
					JOINT UpperArm_L
					{
						OFFSET 5.34809 0.0 0.0
						CHANNELS 6 Xposition Yposition Zposition Zrotation Xrotation Yrotation 
						JOINT LowerArm_L
						{
							OFFSET 24.3286 1.87007e-05 0.0
							CHANNELS 6 Xposition Yposition Zposition Zrotation Xrotation Yrotation 
							JOINT Hand_L
							{
								OFFSET 22.2916 0.0 0.0
								CHANNELS 6 Xposition Yposition Zposition Zrotation Xrotation Yrotation 
								End Site
								{
									OFFSET 0.0 0.0 0.0
								}
							}
						}
					}
				}
				JOINT Shoulder_R
				{
					OFFSET 12.9945 -0.242716 -4.98039
					CHANNELS 6 Xposition Yposition Zposition Zrotation Xrotation Yrotation 
					JOINT UpperArm_R
					{
						OFFSET -5.34813 0.0 0.0
						CHANNELS 6 Xposition Yposition Zposition Zrotation Xrotation Yrotation 
						JOINT LowerArm_R
						{
							OFFSET -24.3289 0.000322201 0.0
							CHANNELS 6 Xposition Yposition Zposition Zrotation Xrotation Yrotation 
							JOINT Hand_R
							{
								OFFSET -22.2915 -0.000108084 0.0
								CHANNELS 6 Xposition Yposition Zposition Zrotation Xrotation Yrotation 
								End Site
								{
									OFFSET 0.0 0.0 0.0
								}
							}
						}
					}
				}
			}
		}
		JOINT UpperLeg_L
		{
			OFFSET -2.19248 -6.46944 0.0
			CHANNELS 6 Xposition Yposition Zposition Zrotation Xrotation Yrotation 
			JOINT LowerLeg_L
			{
				OFFSET 39.0811 0.0 -1.23785e-05
				CHANNELS 6 Xposition Yposition Zposition Zrotation Xrotation Yrotation 
				JOINT Foot_L
				{
					OFFSET 40.9854 0.0 -1.26872e-05
					CHANNELS 6 Xposition Yposition Zposition Zrotation Xrotation Yrotation 
					JOINT Toes_L
					{
						OFFSET 11.7543 0.0 0.0
						CHANNELS 6 Xposition Yposition Zposition Zrotation Xrotation Yrotation 
						End Site
						{
							OFFSET 0.0 0.0 0.0
						}
					}
				}
			}
		}
		JOINT UpperLeg_R
		{
			OFFSET -2.19251 6.46944 0.0
			CHANNELS 6 Xposition Yposition Zposition Zrotation Xrotation Yrotation 
			JOINT LowerLeg_R
			{
				OFFSET -39.0811 -0.00228153 -0.0401928
				CHANNELS 6 Xposition Yposition Zposition Zrotation Xrotation Yrotation 
				JOINT Foot_R
				{
					OFFSET -40.9854 0.0 0.0
					CHANNELS 6 Xposition Yposition Zposition Zrotation Xrotation Yrotation 
					JOINT Toes_R
					{
						OFFSET -11.7543 0.0 0.0
						CHANNELS 6 Xposition Yposition Zposition Zrotation Xrotation Yrotation 
						End Site
						{
							OFFSET 0.0 0.0 0.0
						}
					}
				}
			}
		}
	}
}
MOTION
Frames:	6
Frame Time:	0.0333333
0.000000 0.000000 0.000000 0.000000 0.000000 -0.000000 -2.964670 91.949300 -0.483179 86.454600 0.220448 8.214060 15.735700 0.000005 -0.000001 89.349900 85.752100 -87.436800 8.984550 -0.406207 -0.000000 0.735657 -0.213660 3.824720 16.377300 -0.000001 -0.000001 14.098000 2.785530 -11.154000 6.456720 -0.000001 -0.000000 -2.785200 3.355970 -13.558100 12.994200 -0.242716 4.980390 -93.477900 9.455500 -69.698200 5.348090 -0.000007 -0.000001 -70.800300 -14.394400 -4.282180 24.328600 0.000019 0.000005 48.367000 -42.079200 -120.782000 22.291600 -0.000001 0.000005 58.583200 5.033040 6.606900 12.994500 -0.242716 -4.980390 87.545000 6.661030 -69.714500 -5.348130 -0.000001 -0.000004 -68.193200 30.630000 -5.743990 -24.328900 0.000322 -0.000009 1.192960 4.573380 -14.648800 -22.291500 -0.000108 -0.000004 -2.209430 5.308600 -0.169888 -2.192480 -6.469440 -0.000000 -175.760000 0.421021 1.439190 39.081100 -0.000007 -0.000012 0.342306 -0.686993 26.486400 40.985400 -0.000006 -0.000013 1.218680 4.208210 -75.189400 11.754300 -0.000000 0.000003 -0.001447 0.189192 -8.901750 -2.192510 6.469440 -0.000001 -173.457000 9.741120 -173.267000 -39.081100 -0.002282 -0.040193 0.162641 -0.512425 17.270900 -40.985400 0.000008 0.000006 5.250460 0.818217 -71.952700 -11.754300 -0.000006 -0.000006 -0.009083 0.264317 -5.836710
0.000000 0.000000 0.000000 0.000000 0.000000 -0.000000 -3.006030 91.947600 -0.506433 86.465200 0.212760 8.185280 15.735700 0.000005 -0.000001 89.156000 85.763300 -87.225000 8.984550 -0.406207 -0.000000 0.713497 -0.243541 3.860570 16.377300 -0.000001 -0.000001 14.128500 2.855700 -11.290500 6.456720 -0.000001 -0.000000 -2.840270 3.526100 -13.722400 12.994200 -0.242716 4.980390 -93.469500 9.426670 -69.687000 5.348090 -0.000007 -0.000001 -70.831500 -15.055400 -4.655320 24.328600 0.000019 0.000005 47.286900 -40.927900 -121.165000 22.291600 -0.000001 0.000005 58.902700 5.017870 6.937140 12.994500 -0.242716 -4.980390 87.561700 6.626320 -69.745000 -5.348130 -0.000001 -0.000004 -68.172500 30.597100 -5.778130 -24.328900 0.000322 -0.000009 1.159900 4.434120 -14.687800 -22.291500 -0.000108 -0.000004 -2.015070 5.310560 -0.225730 -2.192480 -6.469440 -0.000000 -175.719000 0.341235 1.381930 39.081100 -0.000007 -0.000012 0.339112 -0.679962 26.507200 40.985400 -0.000006 -0.000013 1.203730 4.279020 -75.186400 11.754300 -0.000000 0.000003 -0.001519 0.190154 -8.862620 -2.192510 6.469440 -0.000001 -173.426000 9.720070 -173.323000 -39.081100 -0.002282 -0.040193 0.163595 -0.515029 17.285600 -40.985400 0.000008 0.000006 5.276890 0.791488 -71.919000 -11.754300 -0.000006 -0.000006 -0.008891 0.262819 -5.897920
0.000000 0.000000 0.000000 0.000000 0.000000 -0.000000 -3.041210 91.948100 -0.511867 86.478300 0.181826 8.245330 15.735700 0.000005 -0.000001 89.371900 85.752300 -87.424100 8.984550 -0.406207 -0.000000 0.735388 -0.212533 3.894040 16.377300 -0.000001 -0.000001 14.168500 2.928390 -11.408100 6.456720 -0.000001 -0.000000 -2.889540 3.623510 -13.769300 12.994200 -0.242716 4.980390 -93.432600 9.335680 -69.707700 5.348090 -0.000007 -0.000001 -71.217500 -16.202500 -5.126780 24.328600 0.000019 0.000005 43.055400 -37.816800 -123.274000 22.291600 -0.000001 0.000005 57.442800 4.906640 9.253430 12.994500 -0.242716 -4.980390 87.569300 6.604820 -69.743200 -5.348130 -0.000001 -0.000004 -68.132300 30.597100 -5.792200 -24.328900 0.000322 -0.000009 1.181780 4.505040 -14.727800 -22.291500 -0.000108 -0.000004 -2.135700 5.312500 -0.281094 -2.192480 -6.469440 -0.000000 -175.715000 0.364758 1.454680 39.081100 -0.000007 -0.000012 0.338949 -0.680387 26.482000 40.985400 -0.000006 -0.000013 1.174160 4.255300 -75.134900 11.754300 -0.000000 0.000003 -0.001199 0.185828 -9.038480 -2.192510 6.469440 -0.000001 -173.455000 9.832120 -173.262000 -39.081100 -0.002282 -0.040193 0.163459 -0.514646 17.283800 -40.985400 0.000008 0.000006 5.318960 0.905674 -71.944400 -11.754300 -0.000006 -0.000006 -0.008934 0.263163 -5.883860
0.000000 0.000000 0.000000 0.000000 0.000000 -0.000000 -3.082840 91.955700 -0.543166 86.489400 0.176634 8.200070 15.735700 0.000005 -0.000001 89.384200 85.767100 -87.421300 8.984550 -0.406207 -0.000000 0.705891 -0.211811 3.924040 16.377300 -0.000001 -0.000001 14.118500 2.972750 -11.399200 6.456720 -0.000001 -0.000000 -2.929570 3.701800 -13.843700 12.994200 -0.242716 4.980390 -93.407100 9.268120 -69.712700 5.348090 -0.000007 -0.000001 -71.894300 -17.813600 -5.731670 24.328600 0.000019 0.000005 37.290800 -33.449000 -125.896000 22.291600 -0.000001 0.000005 54.896600 4.738840 12.462900 12.994500 -0.242716 -4.980390 87.587100 6.571160 -69.785700 -5.348130 -0.000001 -0.000004 -68.102400 30.781000 -5.795000 -24.328900 0.000322 -0.000009 1.184090 4.484090 -14.821100 -22.291500 -0.000108 -0.000004 -2.135200 5.309650 -0.199797 -2.192480 -6.469440 -0.000000 -175.678000 0.299952 1.391810 39.081100 -0.000007 -0.000012 0.334974 -0.673065 26.459600 40.985400 -0.000006 -0.000013 1.139780 4.274170 -75.112900 11.754300 -0.000000 0.000003 -0.001448 0.189207 -8.901150 -2.192510 6.469440 -0.000001 -173.430000 9.847270 -173.301000 -39.081100 -0.002282 -0.040193 0.162829 -0.514504 17.224300 -40.985400 0.000008 0.000006 5.358230 0.934803 -71.887800 -11.754300 -0.000006 -0.000006 -0.008892 0.262829 -5.897520
0.000000 0.000000 0.000000 0.000000 0.000000 -0.000000 -3.125950 91.954700 -0.573683 86.510500 0.168695 8.186570 15.735700 0.000005 -0.000001 89.191800 85.770000 -87.232000 8.984550 -0.406207 -0.000000 0.700314 -0.240063 3.918220 16.377300 -0.000001 -0.000001 14.035200 3.013730 -11.372500 6.456720 -0.000001 -0.000000 -2.949270 3.746080 -13.724200 12.994200 -0.242716 4.980390 -93.373700 9.163360 -69.686900 5.348090 -0.000007 -0.000001 -72.562200 -19.358600 -6.200250 24.328600 0.000019 0.000005 32.360900 -29.390500 -127.756000 22.291600 -0.000001 0.000005 52.526100 4.561210 15.584500 12.994500 -0.242716 -4.980390 87.600800 6.566340 -69.877400 -5.348130 -0.000001 -0.000004 -68.107700 30.788800 -5.820350 -24.328900 0.000322 -0.000009 1.174730 4.462670 -14.776500 -22.291500 -0.000108 -0.000004 -2.161610 5.311140 -0.242169 -2.192480 -6.469440 -0.000000 -175.677000 0.327246 1.356320 39.081100 -0.000007 -0.000012 0.336505 -0.675946 26.466200 40.985400 -0.000006 -0.000013 1.114790 4.288130 -75.093100 11.754300 -0.000000 0.000003 -0.001354 0.187949 -8.952260 -2.192510 6.469440 -0.000001 -173.433000 9.906330 -173.346000 -39.081100 -0.002282 -0.040193 0.163075 -0.514361 17.253900 -40.985400 0.000008 0.000006 5.398730 0.988867 -71.897200 -11.754300 -0.000006 -0.000006 -0.008870 0.262655 -5.904630
0.000000 0.000000 0.000000 0.000000 0.000000 -0.000000 -3.159770 91.972000 -0.599840 86.525600 0.149312 8.150230 15.735700 0.000005 -0.000001 89.168300 85.778100 -87.215900 8.984550 -0.406207 -0.000000 0.683985 -0.243119 3.903160 16.377300 -0.000001 -0.000001 13.940600 2.977210 -11.237100 6.456720 -0.000001 -0.000000 -3.012580 3.754580 -13.681100 12.994200 -0.242716 4.980390 -93.339100 9.081030 -69.712500 5.348090 -0.000007 -0.000001 -73.140700 -20.551800 -6.477220 24.328600 0.000019 0.000005 29.655600 -26.892800 -128.465000 22.291600 -0.000001 0.000005 50.815800 4.413900 18.003400 12.994500 -0.242716 -4.980390 87.598100 6.573090 -69.875600 -5.348130 -0.000001 -0.000004 -68.102700 30.803300 -5.856750 -24.328900 0.000322 -0.000009 1.186860 4.512890 -14.763700 -22.291500 -0.000108 -0.000004 -2.171560 5.310820 -0.232998 -2.192480 -6.469440 -0.000000 -175.652000 0.269132 1.354380 39.081100 -0.000007 -0.000012 0.330452 -0.666594 26.369800 40.985400 -0.000006 -0.000013 1.089110 4.314680 -75.061800 11.754300 -0.000000 0.000003 -0.001571 0.190838 -8.834840 -2.192510 6.469440 -0.000001 -173.436000 9.967840 -173.334000 -39.081100 -0.002282 -0.040193 0.160920 -0.511449 17.125900 -40.985400 0.000008 0.000006 5.432800 1.058820 -71.858900 -11.754300 -0.000006 -0.000006 -0.008717 0.261458 -5.953550
